Coordinates
version=1
nRows=14
nColumns=42
inDegrees=yes

Units are S.I. units (second, meters, Newtons, ...)
If the header above contains a line with 'inDegrees', this indicates whether rotational values are in degrees (yes) or radians (no).

endheader
time	pelvis_tilt	pelvis_list	pelvis_rotation	pelvis_tx	pelvis_ty	pelvis_tz	hip_flexion_r	hip_adduction_r	hip_rotation_r	knee_angle_r	knee_adduction_r	knee_angle_r_beta	ankle_angle_r	subtalar_angle_r	mtp_angle_r	hip_flexion_l	hip_adduction_l	hip_rotation_l	knee_angle_l	knee_adduction_l	knee_angle_l_beta	ankle_angle_l	subtalar_angle_l	mtp_angle_l	lumbar_extension	lumbar_bending	lumbar_rotation	arm_flex_r	arm_add_r	arm_rot_r	elbow_flex_r	pro_sup_r	wrist_flex_r	wrist_dev_r	arm_flex_l	arm_add_l	arm_rot_l	elbow_flex_l	pro_sup_l	wrist_flex_l	wrist_dev_l
      1.83000000	     -4.56811978	     -3.93524303	     -4.05433427	      0.42696907	      0.86166131	      0.15542723	    -11.21106549	     -0.45513865	     -1.37633520	     10.28525062	     12.13525709	      0.17951149	     17.52281993	      6.52393749	     -7.50736428	     28.95039921	    -14.11968073	     -9.92930661	      8.93804726	     16.92864235	      0.15599835	     -2.32268276	     -6.58710771	     -7.50736428	    -11.62717126	      4.86422470	      7.02255290	      2.58152825	    -22.08376442	     -2.15512767	     43.55264694	     90.00000001	      0.00000000	      0.00000000	    -14.20452784	     -6.87882997	     -4.46113878	     20.96546483	     90.00000001	      0.00000000	      0.00000000
      1.84000000	     -4.43059359	     -3.67997596	     -4.13023386	      0.43925070	      0.86118022	      0.15403381	    -11.77198656	     -1.04946659	     -1.02296172	     11.07458136	     12.22896322	      0.19328791	     17.19159441	      6.49365589	     -7.50723447	     28.91378570	    -13.84753608	     -9.38836072	     10.26227817	     17.09689445	      0.17911054	     -2.70116792	     -6.91806000	     -7.50723447	    -11.59484364	      4.46737473	      7.02099262	      2.39805332	    -21.92599336	     -2.30093560	     43.06270231	     90.00000001	      0.00000000	      0.00000000	    -14.06583168	     -6.98612743	     -4.47383850	     21.03825262	     90.00000001	      0.00000000	      0.00000000
      1.85000000	     -4.26600410	     -3.34411364	     -4.16592846	      0.45161334	      0.86098142	      0.15257529	    -12.24252445	     -1.72093407	     -0.75663261	     12.08920570	     12.31752285	      0.21099644	     16.63404044	      6.35062549	     -7.50709196	     28.86249540	    -13.49866917	     -8.95985981	     11.80357581	     17.28189391	      0.20601126	     -3.38295056	     -7.60889063	     -7.50709196	    -11.59298878	      3.98496102	      6.99966421	      2.26280045	    -21.68102501	     -2.50094090	     42.41272149	     90.00000001	      0.00000000	      0.00000000	    -13.86734160	     -7.15065468	     -4.47319326	     21.07298466	     90.00000001	      0.00000000	      0.00000000
      1.86000000	     -4.19393393	     -2.95817263	     -4.20235681	      0.46397754	      0.86103786	      0.15112493	    -12.43285447	     -2.38492049	     -0.58876738	     13.41728330	     12.29035685	      0.23417577	     15.97323935	      6.28696435	     -7.50648890	     28.69227231	    -13.08675829	     -7.74694551	     12.81138692	     17.65037666	      0.22360088	     -4.83981271	     -9.94694029	     -7.50648890	    -11.47785308	      3.42723506	      6.89403617	      2.37914885	    -21.16902482	     -3.23774807	     40.96685960	     90.00000001	      0.00000000	      0.00000000	    -13.57504106	     -7.31541406	     -4.42735001	     20.87161850	     90.00000001	      0.00000000	      0.00000000
      1.87000000	     -3.97768470	     -2.56210334	     -4.17402078	      0.47651582	      0.86149123	      0.14956539	    -12.71945287	     -3.07816001	     -0.45074461	     14.85811877	     12.34102799	      0.25932309	     14.91775264	      6.00107402	     -7.50635251	     28.46408496	    -12.66791308	     -7.28695210	     14.30263172	     17.90187252	      0.24962802	     -5.29993458	    -10.40615824	     -7.50635251	    -11.53489349	      2.86968505	      6.80436269	      2.03889109	    -20.94942277	     -3.27939406	     40.58044223	     90.00000001	      0.00000000	      0.00000000	    -13.30685427	     -7.51775647	     -4.40565955	     20.99001437	     90.00000001	      0.00000000	      0.00000000
      1.88000000	     -3.88971643	     -2.17661975	     -4.10461377	      0.48887449	      0.86214904	      0.14792690	    -12.61703118	     -3.73089645	     -0.49410866	     16.73069676	     12.35172472	      0.29200574	     13.71338497	      5.71708211	     -7.50608107	     28.32926083	    -12.24499748	     -6.59511179	     15.66488871	     18.21211293	      0.27340388	     -5.93777352	    -11.25784325	     -7.50608107	    -11.44987459	      2.33587123	      6.66530764	      1.91971027	    -20.56902539	     -3.59503513	     39.55289966	     90.00000001	      0.00000000	      0.00000000	    -12.91219983	     -7.74447215	     -4.29953121	     20.87487185	     90.00000001	      0.00000000	      0.00000000
      1.89000000	     -3.59243292	     -1.81148207	     -3.98290478	      0.50140103	      0.86334834	      0.14618685	    -12.71621737	     -4.38246669	     -0.41174057	     18.58416551	     12.45838933	      0.32435488	     12.19117100	      5.41316611	     -7.50597398	     27.85264139	    -11.82301152	     -5.97298861	     16.88716243	     18.58305146	      0.29473659	     -5.78160160	    -11.54617730	     -7.50597398	    -11.62073744	      1.83365008	      6.50854139	      1.56534187	    -20.31465603	     -3.69104301	     39.05001627	     90.00000001	      0.00000000	      0.00000000	    -12.51133428	     -7.95839252	     -4.26072813	     20.98892772	     90.00000001	      0.00000000	      0.00000000
      1.90000000	     -3.45689818	     -1.44586925	     -3.80847987	      0.51373136	      0.86467259	      0.14439605	    -12.31743503	     -4.99839177	     -0.77493903	     21.06027065	     12.41354036	      0.36757106	     10.01552039	      4.79652215	     -7.50587464	     27.50663467	    -11.33616733	     -5.34763526	     18.00180488	     18.86779100	      0.31419077	     -5.60297158	    -12.09701887	     -7.50587464	    -11.60213374	      1.34489225	      6.28968265	      1.34310396	    -19.94707849	     -3.90404776	     38.16802045	     90.00000001	      0.00000000	      0.00000000	    -11.98283920	     -8.20708642	     -4.18688543	     20.90478477	     90.00000001	      0.00000000	      0.00000000
      1.91000000	     -3.34607595	     -1.17863912	     -3.56756774	      0.52594940	      0.86618888	      0.14249167	    -11.73118309	     -5.53788509	     -1.24493769	     23.75935697	     12.40119491	      0.41467901	      7.91511437	      4.41127720	     -7.50572797	     27.12607712	    -10.90426014	     -4.60083752	     18.96989578	     19.16661063	      0.33108714	     -5.30896146	    -12.32752303	     -7.50572797	    -11.57043335	      1.00157893	      6.00816253	      1.17966119	    -19.56458023	     -4.23743575	     37.08424854	     90.00000001	      0.00000000	      0.00000000	    -11.43374107	     -8.44553490	     -4.07799353	     20.79718848	     90.00000001	      0.00000000	      0.00000000
      1.92000000	     -3.17860586	     -0.93106389	     -3.34392910	      0.53806475	      0.86796001	      0.14059375	    -11.02861576	     -6.06798258	     -1.64171825	     26.67160504	     12.36622374	      0.46550732	      5.45946181	      3.96842542	     -7.50561543	     26.52044572	    -10.48871123	     -4.08720874	     19.68090617	     19.44507094	      0.34349661	     -4.58926905	    -12.39783496	     -7.50561543	    -11.62599573	      0.69227123	      5.78537445	      0.92721866	    -19.24554549	     -4.44300485	     36.25146520	     90.00000001	      0.00000000	      0.00000000	    -10.83554993	     -8.67815993	     -3.99821665	     20.81217640	     90.00000001	      0.00000000	      0.00000000
      1.93000000	     -3.08486484	     -0.76432927	     -3.07167578	      0.55000283	      0.86975608	      0.13866963	    -10.05336448	     -6.52324935	     -2.22630432	     29.85127589	     12.24485529	      0.52100305	      2.96054805	      3.52012037	     -7.50547891	     25.92512413	    -10.12121912	     -3.67983706	     20.26646545	     19.64195508	      0.35371655	     -3.79850396	    -12.11231262	     -7.50547891	    -11.60093670	      0.49230365	      5.47784874	      0.72284364	    -18.91443380	     -4.66301362	     35.33124607	     90.00000001	      0.00000000	      0.00000000	    -10.23821798	     -8.91122991	     -3.90254701	     20.82348562	     90.00000001	      0.00000000	      0.00000000
      1.94000000	     -2.98691014	     -0.62844905	     -2.89660338	      0.56183147	      0.87162781	      0.13679821	     -8.92432400	     -6.97592391	     -2.49261253	     33.10788369	     12.16799219	      0.57784158	      0.52305535	      2.91110430	     -7.50539579	     25.12406085	     -9.81303531	     -3.51027984	     20.53056743	     19.81196323	      0.35832600	     -2.84300367	    -11.82765218	     -7.50539579	    -11.58211384	      0.32855229	      5.29060574	      0.41534168	    -18.67238168	     -4.75648320	     34.63922180	     90.00000001	      0.00000000	      0.00000000	     -9.63417639	     -9.12160560	     -3.84448868	     20.94686091	     90.00000001	      0.00000000	      0.00000000
      1.95000000	     -2.97155096	     -0.58318125	     -2.58876825	      0.57340636	      0.87332668	      0.13486594	     -7.54311347	     -7.29327110	     -3.27649996	     36.57530396	     11.76815137	      0.63835948	     -1.68390660	      2.59112829	     -7.50497333	     24.56537919	     -9.54535584	     -3.92439467	     21.21494743	     19.66759536	      0.37027068	     -1.45560968	     -9.88440800	     -7.50497333	    -11.48809972	      0.30350493	      4.90118541	      0.46944986	    -18.31577299	     -5.14377019	     33.25967416	     90.00000001	      0.00000000	      0.00000000	     -9.03471902	     -9.35924043	     -3.61940626	     21.06439786	     90.00000001	      0.00000000	      0.00000000
      1.96000000	     -2.99645391	     -0.47635753	     -2.43302843	      0.58482786	      0.87503970	      0.13305661	     -6.00978998	     -7.67940652	     -3.36384861	     39.92987940	     11.58712200	      0.69690787	     -3.53924018	      1.55298254	     -7.50489292	     23.69428915	     -9.24735627	     -3.90999080	     21.05913269	     19.76003141	      0.36755120	     -0.51104990	     -9.44092429	     -7.50489292	    -11.35138100	      0.20337199	      4.68312042	      0.04903420	    -18.14991056	     -5.11262508	     32.88119931	     90.00000001	      0.00000000	      0.00000000	     -8.41294768	     -9.57031062	     -3.59051298	     21.34243048	     90.00000001	      0.00000000	      0.00000000
